<svg width="10" height="7" viewBox="0 0 10 7" fill="none" xmlns="http://www.w3.org/2000/svg">
<path d="M8.2 6.24299C8.39257 6.38742 8.63078 6.45754 8.87089 6.44048C9.111 6.42341 9.3369 6.32031 9.50711 6.1501C9.67732 5.97989 9.78042 5.75399 9.79749 5.51388C9.81455 5.27377 9.74443 5.03556 9.6 4.84299L5.6 0.842992C5.41307 0.659765 5.16175 0.557135 4.9 0.557135C4.63825 0.557135 4.38693 0.659765 4.2 0.842992L0.200002 4.84299C0.0555725 5.03556 -0.014547 5.27377 0.00251711 5.51388C0.0195812 5.75399 0.122683 5.97989 0.292895 6.1501C0.463106 6.32031 0.689003 6.42341 0.929112 6.44048C1.16922 6.45754 1.40743 6.38742 1.6 6.24299L4.9 2.95299L8.2 6.25299V6.24299Z" fill="#71717A"/>
</svg>
