<svg width="231" height="29" viewBox="0 0 231 29" fill="none" xmlns="http://www.w3.org/2000/svg">
<path d="M13.28 5.2V0.88H21.48V5.2H19.52V25.76L15.88 29H4.24L0.6 25.76V18.68H4.92V23.84L5.88 24.68H14.24L15.2 23.84V5.2H13.28ZM23.4906 0.88H40.7306L44.3706 4.16V9.04H40.0506V6.08L39.0906 5.2H29.7306V12.8H38.8106V17.08H29.7306V24.68H39.0906L40.0506 23.84V20.88H44.3706V25.76L40.7306 29H23.4906V24.68H25.4106V5.2H23.4906V0.88ZM60.2331 5.2V0.88H68.4331V5.2H66.4731V25.76L62.8331 29H51.1931L47.5531 25.76V18.68H51.8731V23.84L52.8331 24.68H61.1931L62.1531 23.84V5.2H60.2331ZM84.7238 5.2V0.88H92.9238V5.2H90.9638V25.76L87.3638 29H76.0438L72.4038 25.76V5.2H70.4438V0.88H78.6438V5.2H76.7238V23.84L77.6838 24.68H77.7238H85.6438H85.6838L86.6838 23.84V5.2H84.7238ZM112.163 0.919999H129.443L133.043 4.16V25.76L129.443 29H112.163V24.72H114.123V5.2H112.163V0.919999ZM128.763 23.84V6.08L127.763 5.2H118.403V24.72H127.763L128.763 23.84ZM136.225 0.88H153.465L157.105 4.16V9.04H152.785V6.08L151.825 5.2H142.465V12.8H151.545V17.08H142.465V24.68H151.825L152.785 23.84V20.88H157.105V25.76L153.465 29H136.225V24.68H138.145V5.2H136.225V0.88ZM160.288 0.88H177.528L181.168 4.16V9.04H176.848V6.08L175.888 5.2H166.528V12.8H175.608V17.08H166.528V24.68H175.888L176.848 23.84V20.88H181.168V25.76L177.528 29H160.288V24.68H162.208V5.2H160.288V0.88ZM201.79 16.92L205.83 24.68H207.43V29H199.39V24.68H200.99L196.99 17.08H191.83H190.63V24.68H192.55V29H184.35V24.68H186.31V5.16H184.35V0.839998H201.63L205.23 4.12V13.8L201.79 16.92ZM190.63 5.16V12.76H199.99L200.95 11.88V6.04L199.99 5.16H190.63ZM213.107 0.919999H226.747L230.347 4.16V9.04H226.067V6.08L225.067 5.2H214.747L213.787 6.08V11.92L214.747 12.8H226.747L230.347 16.04V25.76L226.747 29H213.107L209.467 25.76V18.72H213.787V23.84L214.747 24.72H225.067L226.067 23.84V17.96L225.067 17.08H213.107L209.467 13.84V11.36V4.16L213.107 0.919999Z" fill="white"/>
</svg>
