<svg width="36" height="36" viewBox="0 0 36 36" fill="none" xmlns="http://www.w3.org/2000/svg">
<path d="M26.4855 24.9855L20.121 31.35C19.8427 31.6287 19.5122 31.8497 19.1483 32.0005C18.7845 32.1513 18.3946 32.2289 18.0008 32.2289C17.6069 32.2289 17.217 32.1513 16.8532 32.0005C16.4894 31.8497 16.1588 31.6287 15.8805 31.35L9.51451 24.9855C7.83634 23.3073 6.69351 21.1691 6.23054 18.8413C5.76756 16.5136 6.00524 14.1008 6.91351 11.9081C7.82178 9.71547 9.35985 7.84136 11.3332 6.52281C13.3066 5.20426 15.6267 4.50049 18 4.50049C20.3734 4.50049 22.6934 5.20426 24.6668 6.52281C26.6402 7.84136 28.1782 9.71547 29.0865 11.9081C29.9948 14.1008 30.2324 16.5136 29.7695 18.8413C29.3065 21.1691 28.1637 23.3073 26.4855 24.9855V24.9855Z" stroke="#3F3F46" stroke-width="2" stroke-linecap="round" stroke-linejoin="round"/>
<path d="M21.182 19.682C22.0259 18.8381 22.5 17.6935 22.5 16.5C22.5 15.3065 22.0259 14.1619 21.182 13.318C20.3381 12.4741 19.1935 12 18 12C16.8065 12 15.6619 12.4741 14.818 13.318C13.9741 14.1619 13.5 15.3065 13.5 16.5C13.5 17.6935 13.9741 18.8381 14.818 19.682C15.6619 20.5259 16.8065 21 18 21C19.1935 21 20.3381 20.5259 21.182 19.682Z" stroke="#3F3F46" stroke-width="2" stroke-linecap="round" stroke-linejoin="round"/>
</svg>
